<svg width="24" height="24" viewBox="0 0 24 24" fill="none" xmlns="http://www.w3.org/2000/svg"><path d="M4.70711 7.29277C4.31658 6.90225 3.68342 6.90225 3.29289 7.29277C2.90237 7.6833 2.90237 8.31646 3.29289 8.70698L4.70711 7.29277ZM12 15.9999L11.2929 16.707L12 17.4141L12.7071 16.707L12 15.9999ZM20.7071 8.70698C21.0976 8.31646 21.0976 7.6833 20.7071 7.29277C20.3166 6.90225 19.6834 6.90225 19.2929 7.29277L20.7071 8.70698ZM3.29289 8.70698L11.2929 16.707L12.7071 15.2928L4.70711 7.29277L3.29289 8.70698ZM12.7071 16.707L20.7071 8.70698L19.2929 7.29277L11.2929 15.2928L12.7071 16.707Z" fill="#A5A5A5" /></svg>