<svg xmlns="http://www.w3.org/2000/svg" xml:space="preserve" width="177.047" height="32.935" style="shape-rendering:geometricPrecision;text-rendering:geometricPrecision;image-rendering:optimizeQuality;fill-rule:evenodd;clip-rule:evenodd" viewBox="0 0 4670.14 868.77"><defs><style>.fil1{fill:#52d6af;fill-rule:nonzero}</style></defs><g id="Слой_x0020_1"><g id="_1990736656192"><path d="M1941.68 76.72c20.44 0 39.55 3.03 57.33 9.08 17.79 6.05 33.12 14.57 45.98 25.54 12.87 10.98 22.99 24.51 30.37 40.59 7.38 16.08 11.07 33.96 11.07 53.64 0 19.3-3.69 36.9-11.07 52.79-7.38 15.89-17.5 29.51-30.37 40.87-12.86 11.36-28.19 20.15-45.98 26.39-17.78 6.25-36.89 9.37-57.33 9.37h-49.38v116.36h-97.62V76.73h147zm-49.38 85.14v87.98h49.95c13.63 0 24.51-4.07 32.64-12.2 8.14-8.14 12.2-18.83 12.2-32.07 0-13.24-4.07-23.84-12.2-31.78-8.14-7.95-19.01-11.92-32.64-11.92h-49.95zm578.95 289.48h-97.62V301.5h-136.79v149.84h-97.62V76.72h97.62v136.79h136.79V76.72h97.62v374.62zm221.93-374.62c20.44 0 39.55 3.03 57.33 9.08 17.79 6.05 33.12 14.57 45.98 25.54 12.87 10.98 22.99 24.51 30.37 40.59 7.38 16.08 11.07 33.96 11.07 53.64 0 19.3-3.69 36.9-11.07 52.79-7.38 15.89-17.5 29.51-30.37 40.87-12.86 11.36-28.19 20.15-45.98 26.39-17.78 6.25-36.89 9.37-57.33 9.37h-49.38v116.36h-97.62V76.73h147zm-49.38 85.14v87.98h49.95c13.63 0 24.51-4.07 32.64-12.2 8.14-8.14 12.2-18.83 12.2-32.07 0-13.24-4.07-23.84-12.2-31.78-8.14-7.95-19.01-11.92-32.64-11.92h-49.95zm367.24-91.95c32.92 0 59.79 7.19 80.6 21.56 20.81 14.39 36.7 32.36 47.67 53.93l-65.27 49.95c-8.7-12.48-17.6-22.23-26.68-29.23-9.08-7-20.82-10.5-35.19-10.5-9.84 0-17.88 1.79-24.13 5.39-6.24 3.59-9.36 9.74-9.36 18.44 0 7.19 2.46 12.87 7.38 17.03 4.92 4.17 13.24 8.7 24.97 13.62l43.14 18.16c31.4 13.25 55.24 28.47 71.52 45.69 16.27 17.22 24.41 39.64 24.41 67.27 0 18.54-3.5 35-10.51 49.38-7 14.38-16.74 26.59-29.23 36.61-12.48 10.03-27.05 17.7-43.71 22.99-16.65 5.3-34.61 7.95-53.92 7.95-34.44 0-64.61-7.66-90.53-22.99-25.92-15.32-45.5-35.66-58.75-61.01l65.85-49.95c4.54 6.05 9.46 12.01 14.76 17.88 5.29 5.87 11.26 11.08 17.88 15.61 6.63 4.55 14.1 8.14 22.42 10.79 8.32 2.64 17.79 3.97 28.38 3.97 25.73 0 38.59-9.08 38.59-27.24 0-8.7-3.02-15.23-9.08-19.59-6.05-4.35-15.7-9.36-28.94-15.03l-38.6-17.03c-29.89-13.25-53.16-28.76-69.81-46.55-16.65-17.79-24.97-39.92-24.97-66.41 0-16.65 3.21-31.78 9.64-45.41 6.44-13.62 15.52-25.25 27.25-34.9 11.73-9.65 25.64-17.13 41.72-22.42 16.08-5.29 33.58-7.95 52.5-7.95zm326.37 90.81c20.82 0 39.64 3.6 56.48 10.79 16.84 7.19 31.13 16.94 42.85 29.23 11.73 12.3 20.72 26.58 26.97 42.86 6.24 16.27 9.36 33.49 9.36 51.64 0 8.7-.57 17.32-1.7 25.83-1.14 8.51-2.64 15.98-4.54 22.42h-181.64c5.3 10.97 13.34 19.1 24.13 24.41 10.79 5.29 23.94 7.95 39.45 7.95 13.62 0 26.49-1.89 38.59-5.67 12.11-3.79 24.03-9.27 35.76-16.46l35.19 66.41c-33.68 25.35-71.33 38.02-112.96 38.02-23.46 0-44.93-3.78-64.42-11.35-19.48-7.58-36.33-17.98-50.52-31.22-14.19-13.24-25.16-28.94-32.92-47.11-7.76-18.16-11.63-37.84-11.63-59.03 0-21.2 3.88-40.87 11.63-59.03 7.76-18.16 18.44-33.87 32.07-47.12 13.62-13.24 29.7-23.65 48.24-31.21 18.54-7.57 38.41-11.36 59.6-11.36zm-3.97 76.63c-12.11 0-22.71 3.69-31.79 11.07-9.08 7.39-15.7 17.89-19.86 31.5h98.76c-.76-13.24-5.67-23.65-14.76-31.21-9.08-7.57-19.87-11.36-32.35-11.36zm329.78-76.63c29.89 0 55.72 6.91 77.47 20.72 21.75 13.82 38.31 32.26 49.67 55.34l-67.54 51.65c-6.82-10.6-14.77-19.58-23.85-26.96-9.08-7.38-20.62-11.07-34.62-11.07-17.4 0-31.12 5.48-41.14 16.46-10.03 10.97-15.04 25.16-15.04 42.57s5.01 31.59 15.04 42.57c10.03 10.97 23.75 16.46 41.14 16.46 14.01 0 25.54-3.6 34.62-10.79 9.08-7.19 17.03-16.08 23.85-26.68l67.54 51.08c-11.36 23.08-27.92 41.53-49.67 55.34-21.75 13.82-47.59 20.72-77.47 20.72-21.57 0-41.81-3.78-60.74-11.35-18.92-7.58-35.29-17.98-49.1-31.22-13.81-13.24-24.78-28.94-32.92-47.11-8.14-18.16-12.2-37.84-12.2-59.03 0-21.2 4.07-40.87 12.2-59.03 8.14-18.16 19.11-33.87 32.92-47.12 13.81-13.24 30.18-23.65 49.1-31.21 18.92-7.57 39.16-11.36 60.74-11.36zm448.4 158.37c0 21.19-3.5 40.3-10.51 57.33-7 17.03-16.65 31.59-28.94 43.71-12.3 12.1-26.96 21.47-43.99 28.09-17.03 6.62-35.38 9.93-55.06 9.93-20.06 0-38.59-3.31-55.62-9.93-17.03-6.62-31.69-15.99-44-28.09-12.29-12.11-21.94-26.68-28.94-43.71s-10.5-36.14-10.5-57.33V167.53h97.62v159.5c0 12.1 3.88 22.04 11.63 29.8 7.76 7.76 17.7 11.63 29.8 11.63 11.73 0 21.47-3.88 29.23-11.63 7.76-7.76 11.63-17.7 11.63-29.8v-159.5h97.63v151.56zM4333.54 163c10.22 0 19.49 1.52 27.82 4.54v86.28h-23.27c-21.57 0-38.22 5.11-49.95 15.33-11.73 10.21-17.6 27.81-17.6 52.78v129.42h-97.63V167.54h89.12v30.09c8.7-10.98 19.2-19.49 31.5-25.54 12.29-6.05 25.63-9.08 40.01-9.08zm200.94-2.27c20.82 0 39.64 3.6 56.48 10.79 16.84 7.19 31.13 16.94 42.85 29.23 11.73 12.3 20.72 26.58 26.97 42.86 6.24 16.27 9.36 33.49 9.36 51.64 0 8.7-.57 17.32-1.7 25.83-1.14 8.51-2.64 15.98-4.54 22.42h-181.64c5.3 10.97 13.34 19.1 24.13 24.41 10.79 5.29 23.94 7.95 39.45 7.95 13.62 0 26.49-1.89 38.59-5.67 12.11-3.79 24.03-9.27 35.76-16.46l35.19 66.41c-33.68 25.35-71.33 38.02-112.96 38.02-23.46 0-44.93-3.78-64.42-11.35-19.48-7.58-36.33-17.98-50.52-31.22-14.19-13.24-25.16-28.94-32.92-47.11-7.76-18.16-11.63-37.84-11.63-59.03 0-21.2 3.88-40.87 11.63-59.03 7.76-18.16 18.44-33.87 32.07-47.12 13.62-13.24 29.7-23.65 48.24-31.21 18.54-7.57 38.41-11.36 59.6-11.36zm-3.97 76.63c-12.11 0-22.71 3.69-31.79 11.07-9.08 7.39-15.7 17.89-19.86 31.5h98.76c-.76-13.24-5.67-23.65-14.76-31.21-9.08-7.57-19.87-11.36-32.35-11.36z" style="fill:#111;fill-rule:nonzero"/><path class="fil1" d="M1873.66 798.85h-11.98l-66.99-138.07h38.94l33.77 76.25 34.32-76.25h38.66l-66.72 138.07zm210.78-62.64c0 9.62-1.59 18.29-4.77 26.01-3.18 7.72-7.54 14.3-13.07 19.74-5.54 5.45-12.07 9.62-19.61 12.53-7.54 2.9-15.66 4.36-24.38 4.36-8.89 0-17.11-1.46-24.64-4.36-7.53-2.91-14.07-7.08-19.6-12.53-5.54-5.44-9.9-12.02-13.07-19.74-3.18-7.72-4.77-16.39-4.77-26.01v-75.43h36.49v78.43c0 7.99 2.45 14.3 7.35 18.92 4.91 4.64 10.99 6.95 18.24 6.95 7.09 0 13.07-2.31 17.98-6.95 4.91-4.63 7.36-10.94 7.36-18.92v-78.43h36.49v75.43zm72.16 59.37h-36.76V591.34h36.76v204.24zm109.48-137.79c7.81 0 14.88 1.32 21.24 3.95 6.35 2.63 11.71 6.3 16.07 11.03 4.36 4.72 7.72 10.39 10.07 17.02 2.36 6.63 3.54 14.03 3.54 22.19v83.61h-36.49v-78.7c0-7.81-2.26-14.12-6.81-18.92-4.54-4.82-10.62-7.22-18.24-7.22-7.63 0-13.8 2.4-18.51 7.22-4.73 4.81-7.08 11.12-7.08 18.92v78.7h-36.77v-134.8h33.77v12.53c4.73-4.73 10.35-8.49 16.89-11.31 6.53-2.81 13.98-4.22 22.33-4.22zm149.49 0c9.44 0 18.07 1.63 25.87 4.9 7.81 3.27 14.48 7.72 20.02 13.35 5.53 5.62 9.8 12.25 12.8 19.88 2.99 7.63 4.49 15.79 4.49 24.51 0 3.81-.27 7.54-.82 11.17-.54 3.63-1.09 6.63-1.64 8.98h-94.76c2.36 8.71 6.9 15.34 13.62 19.88 6.71 4.55 14.97 6.81 24.77 6.81 7.27 0 13.94-1.23 20.02-3.68 6.08-2.44 11.93-5.76 17.57-9.94l14.97 25.05c-7.63 6.36-15.88 11.31-24.78 14.84-8.89 3.54-18.51 5.31-28.86 5.31-10.71 0-20.61-1.81-29.68-5.45-9.08-3.63-16.89-8.61-23.42-14.97-6.54-6.35-11.66-13.8-15.39-22.33-3.72-8.53-5.58-17.79-5.58-27.78 0-9.98 1.81-19.24 5.45-27.78 3.63-8.53 8.62-15.97 14.97-22.33 6.35-6.35 13.84-11.35 22.46-14.97 8.62-3.63 17.94-5.44 27.92-5.44zm-1.36 29.68c-8 0-14.89 2.4-20.7 7.22-5.81 4.81-9.81 11.49-11.98 20.01h61.81c-.36-8.71-3.36-15.42-8.98-20.15-5.63-4.72-12.34-7.08-20.15-7.08zm163.93-28.32c4.54 0 8.44.55 11.71 1.64v32.41h-9.81c-10.53 0-19.15 2.81-25.87 8.43-6.71 5.63-10.07 14.53-10.07 26.69v67.27h-36.77v-134.8h33.77v16.07c4.54-5.81 9.99-10.22 16.34-13.21 6.35-3 13.25-4.5 20.7-4.5zm87.41-1.36c8.53 0 16.34 1.23 23.42 3.67 7.08 2.45 13.16 6.08 18.24 10.9 5.08 4.82 9.03 10.8 11.84 17.98 2.82 7.17 4.23 15.56 4.23 25.18v80.07h-33.5v-13.07c-4.72 5.08-10.58 9.07-17.57 11.98-6.99 2.9-14.93 4.36-23.83 4.36-7.26 0-13.8-1.05-19.6-3.13-5.81-2.09-10.72-4.91-14.71-8.44-4-3.54-7.04-7.77-9.13-12.66-2.08-4.91-3.13-10.26-3.13-16.07 0-12.34 4.59-21.96 13.76-28.86 9.16-6.9 21.64-10.35 37.45-10.35h33.77v-5.99c0-7.45-2.09-13.25-6.27-17.43-4.17-4.18-10.53-6.27-19.06-6.27-7.08 0-13.39 1.64-18.92 4.91-5.53 3.27-11.12 7.81-16.75 13.62l-18.79-22.6c15.25-18.52 34.77-27.78 58.55-27.78zm-7.35 114.1c7.99 0 14.75-2.45 20.29-7.36 5.53-4.91 8.3-11.35 8.3-19.33v-1.64h-28.87c-12.52 0-18.79 4.54-18.79 13.62 0 4.72 1.77 8.34 5.31 10.89 3.54 2.54 8.13 3.82 13.76 3.82zm137.25-98.04c9.62-10.71 23.05-16.06 40.3-16.06 9.44 0 18.15 1.76 26.14 5.3 8 3.54 14.89 8.44 20.7 14.71 5.81 6.27 10.35 13.71 13.62 22.33 3.27 8.62 4.91 18.02 4.91 28.18 0 10.17-1.64 19.56-4.91 28.18-3.27 8.62-7.76 16.07-13.48 22.33-5.72 6.26-12.62 11.17-20.7 14.71-8.08 3.54-16.84 5.31-26.28 5.31-9.25 0-17.61-1.68-25.05-5.04-7.44-3.35-13.52-8.21-18.24-14.57v16.34h-33.77V591.33h36.77v82.51zm33.77 17.16c-4.36 0-8.58.73-12.66 2.18-4.09 1.45-7.77 3.72-11.04 6.8-3.26 3.09-5.85 7-7.76 11.71-1.9 4.72-2.86 10.26-2.86 16.61 0 6.54 1 12.12 2.99 16.75 2 4.63 4.59 8.44 7.77 11.44 3.18 3 6.81 5.22 10.9 6.68 4.08 1.45 8.3 2.17 12.66 2.17 4.72 0 9.16-.86 13.34-2.58 4.18-1.72 7.86-4.23 11.03-7.5 3.18-3.26 5.67-7.17 7.5-11.7 1.81-4.54 2.72-9.71 2.72-15.52 0-5.63-.91-10.76-2.72-15.38-1.82-4.64-4.32-8.53-7.5-11.71-3.17-3.18-6.85-5.62-11.03-7.35-4.18-1.72-8.62-2.59-13.34-2.59zm137.52 104.57h-36.77v-134.8h36.77v134.8zm-18.24-206.69c6.35 0 11.84 2.17 16.47 6.53 4.63 4.37 6.95 9.81 6.95 16.34 0 6.36-2.32 11.71-6.95 16.07-4.63 4.36-10.12 6.54-16.47 6.54-6.54 0-12.12-2.18-16.75-6.54-4.64-4.36-6.95-9.71-6.95-16.07 0-6.53 2.31-11.97 6.95-16.34 4.63-4.36 10.21-6.53 16.75-6.53zm91.5 206.69h-36.77V591.34H3040v204.24zm73.26 0h-36.77v-134.8h36.77v134.8zm-18.24-206.69c6.35 0 11.84 2.17 16.47 6.53 4.63 4.37 6.95 9.81 6.95 16.34 0 6.36-2.32 11.71-6.95 16.07-4.63 4.36-10.12 6.54-16.47 6.54-6.54 0-12.12-2.18-16.75-6.54-4.64-4.36-6.95-9.71-6.95-16.07 0-6.53 2.31-11.97 6.95-16.34 4.63-4.36 10.21-6.53 16.75-6.53zm137.24 102.94h-38.4v53.1c0 7.81 2.04 13.26 6.13 16.34 4.08 3.09 10.39 4.64 18.92 4.64 2.18 0 4.73-.09 7.63-.28 2.9-.18 6.17-.45 9.8-.82v30.78c-3.81.91-7.81 1.67-11.98 2.31-4.17.64-8.62.96-13.34.96-16.7 0-29.86-4.09-39.48-12.25-9.62-8.18-14.43-20.98-14.43-38.4v-56.37h-21.25v-31.05h21.25v-34.04h36.75v34.04h38.4v31.05zm67.53 103.75h-36.77v-134.8h36.77v134.8zm-18.24-206.69c6.35 0 11.84 2.17 16.47 6.53 4.63 4.37 6.95 9.81 6.95 16.34 0 6.36-2.32 11.71-6.95 16.07-4.63 4.36-10.12 6.54-16.47 6.54-6.54 0-12.12-2.18-16.75-6.54-4.64-4.36-6.95-9.71-6.95-16.07 0-6.53 2.31-11.97 6.95-16.34 4.63-4.36 10.21-6.53 16.75-6.53zm117.91 68.9c9.44 0 18.07 1.63 25.87 4.9 7.81 3.27 14.48 7.72 20.02 13.35 5.53 5.62 9.8 12.25 12.8 19.88 2.99 7.63 4.49 15.79 4.49 24.51 0 3.81-.27 7.54-.82 11.17-.54 3.63-1.09 6.63-1.64 8.98h-94.76c2.36 8.71 6.9 15.34 13.62 19.88 6.71 4.55 14.97 6.81 24.77 6.81 7.27 0 13.94-1.23 20.02-3.68 6.08-2.44 11.93-5.76 17.57-9.94l14.97 25.05c-7.63 6.36-15.88 11.31-24.78 14.84-8.89 3.54-18.51 5.31-28.86 5.31-10.71 0-20.61-1.81-29.68-5.45-9.08-3.63-16.89-8.61-23.42-14.97-6.54-6.35-11.66-13.8-15.39-22.33-3.72-8.53-5.58-17.79-5.58-27.78 0-9.98 1.81-19.24 5.45-27.78 3.63-8.53 8.62-15.97 14.97-22.33 6.35-6.35 13.84-11.35 22.46-14.97 8.62-3.63 17.94-5.44 27.92-5.44zm-1.36 29.68c-8 0-14.89 2.4-20.7 7.22-5.81 4.81-9.81 11.49-11.98 20.01h61.81c-.36-8.71-3.36-15.42-8.98-20.15-5.63-4.72-12.34-7.08-20.15-7.08zm138.88-29.96c19.97 0 36.13 6.81 48.47 20.43l-18.51 22.6c-4.36-4.18-9.12-7.35-14.3-9.53-5.17-2.17-10.49-3.27-15.93-3.27-4.36 0-7.86.78-10.49 2.31-2.63 1.55-3.95 3.96-3.95 7.22 0 2.72 1.14 4.91 3.4 6.54 2.27 1.64 5.86 3.45 10.76 5.44l13.08 5.44c12.16 4.91 21.5 10.35 28.04 16.34 6.54 5.99 9.8 14.26 9.8 24.78 0 6.9-1.36 13.03-4.08 18.38-2.73 5.35-6.45 9.85-11.17 13.48-4.73 3.63-10.31 6.4-16.75 8.3-6.45 1.9-13.3 2.86-20.56 2.86-11.98 0-22.79-2.36-32.41-7.08-9.62-4.73-17.43-11.08-23.42-19.06l18.51-22.33c5.63 5.62 11.53 10.07 17.71 13.34 6.17 3.27 12.89 4.91 20.15 4.91 4.73 0 8.76-.91 12.12-2.72 3.36-1.81 5.03-4.64 5.03-8.44 0-3.09-1.27-5.44-3.81-7.08-2.54-1.64-5.9-3.36-10.08-5.17l-14.44-5.99c-5.8-2.36-10.98-4.82-15.52-7.36-4.54-2.54-8.34-5.44-11.44-8.71a36.8 36.8 0 0 1-7.22-11.03c-1.72-4.09-2.58-8.76-2.58-14.03 0-6.53 1.23-12.29 3.67-17.29 2.45-4.99 5.9-9.21 10.35-12.66 4.46-3.45 9.72-6.08 15.8-7.91 6.08-1.81 12.66-2.72 19.74-2.72zm200.15 0c19.97 0 36.13 6.81 48.47 20.43l-18.51 22.6c-4.36-4.18-9.12-7.35-14.3-9.53-5.17-2.17-10.49-3.27-15.93-3.27-4.36 0-7.86.78-10.49 2.31-2.63 1.55-3.95 3.96-3.95 7.22 0 2.72 1.14 4.91 3.4 6.54 2.27 1.64 5.86 3.45 10.76 5.44l13.08 5.44c12.16 4.91 21.5 10.35 28.04 16.34 6.54 5.99 9.8 14.26 9.8 24.78 0 6.9-1.36 13.03-4.08 18.38-2.73 5.35-6.45 9.85-11.17 13.48-4.73 3.63-10.31 6.4-16.75 8.3-6.45 1.9-13.3 2.86-20.56 2.86-11.98 0-22.79-2.36-32.41-7.08-9.62-4.73-17.43-11.08-23.42-19.06l18.51-22.33c5.63 5.62 11.53 10.07 17.71 13.34 6.17 3.27 12.89 4.91 20.15 4.91 4.73 0 8.76-.91 12.12-2.72 3.36-1.81 5.03-4.64 5.03-8.44 0-3.09-1.27-5.44-3.81-7.08-2.54-1.64-5.9-3.36-10.08-5.17l-14.44-5.99c-5.8-2.36-10.98-4.82-15.52-7.36-4.54-2.54-8.34-5.44-11.44-8.71a36.8 36.8 0 0 1-7.22-11.03c-1.72-4.09-2.58-8.76-2.58-14.03 0-6.53 1.23-12.29 3.67-17.29 2.45-4.99 5.9-9.21 10.35-12.66 4.46-3.45 9.72-6.08 15.8-7.91 6.08-1.81 12.66-2.72 19.74-2.72zm142.96.28c13.44 0 25.1 2.99 34.99 8.98s17.75 14.07 23.56 24.24l-25.6 19.88c-3.99-5.81-8.53-10.53-13.62-14.16-5.07-3.64-11.44-5.45-19.06-5.45-5.26 0-10.03.96-14.3 2.86-4.27 1.9-7.94 4.5-11.03 7.77-3.08 3.26-5.49 7.12-7.22 11.57-1.72 4.45-2.58 9.3-2.58 14.57 0 5.26.86 10.17 2.58 14.71 1.72 4.54 4.14 8.44 7.22 11.7 3.09 3.27 6.76 5.86 11.03 7.77 4.27 1.9 9.03 2.86 14.3 2.86 7.63 0 13.99-1.81 19.06-5.45 5.08-3.63 9.53-8.25 13.35-13.89l25.59 19.61c-5.62 10.17-13.39 18.29-23.28 24.38-9.89 6.08-21.55 9.12-34.99 9.12-10.17 0-19.65-1.81-28.45-5.45-8.81-3.63-16.48-8.61-23.01-14.97-6.54-6.35-11.66-13.84-15.39-22.46-3.72-8.62-5.58-17.94-5.58-27.92 0-9.99 1.86-19.24 5.58-27.78 3.73-8.53 8.85-15.93 15.39-22.19 6.53-6.27 14.2-11.22 23.01-14.84 8.8-3.63 18.28-5.44 28.45-5.44zm140.79 0c8.53 0 16.34 1.23 23.42 3.67 7.08 2.45 13.16 6.08 18.24 10.9 5.08 4.82 9.03 10.8 11.84 17.98 2.82 7.17 4.23 15.56 4.23 25.18v80.07h-33.5v-13.07c-4.72 5.08-10.58 9.07-17.57 11.98-6.99 2.9-14.93 4.36-23.83 4.36-7.26 0-13.8-1.05-19.6-3.13-5.81-2.09-10.72-4.91-14.71-8.44-4-3.54-7.04-7.77-9.13-12.66-2.08-4.91-3.13-10.26-3.13-16.07 0-12.34 4.59-21.96 13.76-28.86 9.16-6.9 21.64-10.35 37.45-10.35h33.77v-5.99c0-7.45-2.09-13.25-6.27-17.43-4.17-4.18-10.53-6.27-19.06-6.27-7.08 0-13.39 1.64-18.92 4.91-5.53 3.27-11.12 7.81-16.75 13.62l-18.79-22.6c15.25-18.52 34.77-27.78 58.55-27.78zm-7.35 114.1c7.99 0 14.75-2.45 20.29-7.36 5.53-4.91 8.3-11.35 8.3-19.33v-1.64h-28.87c-12.52 0-18.79 4.54-18.79 13.62 0 4.72 1.77 8.34 5.31 10.89 3.54 2.54 8.13 3.82 13.76 3.82zM4187 657.79c7.81 0 14.88 1.32 21.24 3.95 6.35 2.63 11.71 6.3 16.07 11.03 4.36 4.72 7.72 10.39 10.07 17.02 2.36 6.63 3.54 14.03 3.54 22.19v83.61h-36.49v-78.7c0-7.81-2.26-14.12-6.81-18.92-4.54-4.82-10.62-7.22-18.24-7.22-7.63 0-13.8 2.4-18.51 7.22-4.73 4.81-7.08 11.12-7.08 18.92v78.7h-36.77v-134.8h33.77v12.53c4.73-4.73 10.35-8.49 16.89-11.31 6.53-2.81 13.98-4.22 22.33-4.22zm159.3 0c7.81 0 14.88 1.32 21.24 3.95 6.35 2.63 11.71 6.3 16.07 11.03 4.36 4.72 7.72 10.39 10.07 17.02 2.36 6.63 3.54 14.03 3.54 22.19v83.61h-36.49v-78.7c0-7.81-2.26-14.12-6.81-18.92-4.54-4.82-10.62-7.22-18.24-7.22-7.63 0-13.8 2.4-18.51 7.22-4.73 4.81-7.08 11.12-7.08 18.92v78.7h-36.77v-134.8h33.77v12.53c4.73-4.73 10.35-8.49 16.89-11.31 6.53-2.81 13.98-4.22 22.33-4.22zm149.49 0c9.44 0 18.07 1.63 25.87 4.9 7.81 3.27 14.48 7.72 20.02 13.35 5.53 5.62 9.8 12.25 12.8 19.88 2.99 7.63 4.49 15.79 4.49 24.51 0 3.81-.27 7.54-.82 11.17-.54 3.63-1.09 6.63-1.64 8.98h-94.76c2.36 8.71 6.9 15.34 13.62 19.88 6.71 4.55 14.97 6.81 24.77 6.81 7.27 0 13.94-1.23 20.02-3.68 6.08-2.44 11.93-5.76 17.57-9.94l14.97 25.05c-7.63 6.36-15.88 11.31-24.78 14.84-8.89 3.54-18.51 5.31-28.86 5.31-10.71 0-20.61-1.81-29.68-5.45-9.08-3.63-16.89-8.61-23.42-14.97-6.54-6.35-11.66-13.8-15.39-22.33-3.72-8.53-5.58-17.79-5.58-27.78 0-9.98 1.81-19.24 5.45-27.78 3.63-8.53 8.62-15.97 14.97-22.33 6.35-6.35 13.84-11.35 22.46-14.97 8.62-3.63 17.94-5.44 27.92-5.44zm-1.36 29.68c-8 0-14.89 2.4-20.7 7.22-5.81 4.81-9.81 11.49-11.98 20.01h61.81c-.36-8.71-3.36-15.42-8.98-20.15-5.63-4.72-12.34-7.08-20.15-7.08zm163.93-28.32c4.54 0 8.44.55 11.71 1.64v32.41h-9.81c-10.53 0-19.15 2.81-25.87 8.43-6.71 5.63-10.07 14.53-10.07 26.69v67.27h-36.77v-134.8h33.77v16.07c4.54-5.81 9.99-10.22 16.34-13.21 6.35-3 13.25-4.5 20.7-4.5zM946.67 218.76 703.16 836.95h-184.5L0 510.68V347.89L553.07 0 462.5 273.3 233.41 417.4l-81.55-51.29-27.93 9.14c145.58 91.6 291.17 183.16 436.77 274.74L804.21 31.81h184.5l518.66 326.26v162.8L954.3 868.76l90.57-273.3 229.09-144.1 81.55 51.29 27.93-9.15c-145.58-91.59-291.17-183.16-436.77-274.74z"/></g></g></svg>