<svg xmlns="http://www.w3.org/2000/svg" width="24" height="24" viewBox="0 0 24 24" fill="none"><path fill-rule="evenodd" clip-rule="evenodd" d="M2.5 4C2.5 3.17157 3.17157 2.5 4 2.5H8V1.5H4C2.61929 1.5 1.5 2.61929 1.5 4V8H2.5V4ZM2.5 19C2.5 20.3807 3.61929 21.5 5 21.5H8V22.5H5C3.067 22.5 1.5 20.933 1.5 19V16H2.5V19ZM20 2.5C20.8284 2.5 21.5 3.17157 21.5 4V8H22.5V4C22.5 2.61929 21.3807 1.5 20 1.5H16V2.5H20ZM21.5 20C21.5 20.8284 20.8284 21.5 20 21.5H16V22.5H20C21.3807 22.5 22.5 21.3807 22.5 20V16H21.5V20ZM5 8C5 7.44772 5.44772 7 6 7H18C18.5523 7 19 7.44772 19 8C19 8.55228 18.5523 9 18 9H6C5.44772 9 5 8.55228 5 8ZM5.13378 12.5H0V11.5H5.13378C5.30669 11.2011 5.62986 11 6 11H12C12.3701 11 12.6933 11.2011 12.8662 11.5H24V12.5H12.8662C12.6933 12.7989 12.3701 13 12 13H6C5.62986 13 5.30669 12.7989 5.13378 12.5ZM5 16C5 15.4477 5.44772 15 6 15H15C15.5523 15 16 15.4477 16 16C16 16.5523 15.5523 17 15 17H6C5.44771 17 5 16.5523 5 16Z" fill="white" /></svg>